<?xml version="1.0" encoding="UTF-8"?>
<svg xmlns="http://www.w3.org/2000/svg" viewBox="0 0 121.32 139.94">
  <defs>
    <style>
      .cls-1 {
        fill: #b7b7b7;
      }

      .cls-2 {
        fill: #fff;
      }

      .cls-3 {
        fill: #a0a0a0;
      }

      .cls-4 {
        fill: #e8ac97;
      }

      .cls-5 {
        fill: #9d5e4d;
      }

      .cls-6 {
        fill: none;
        isolation: isolate;
      }

      .cls-7 {
        fill: #e8b5a1;
        mix-blend-mode: overlay;
      }

      .cls-7, .cls-8 {
        opacity: .3;
      }

      .cls-8 {
        fill: #eab28e;
        mix-blend-mode: multiply;
      }

      .cls-9 {
        fill: #3a3032;
      }

      .cls-10 {
        fill: #2e1917;
      }
    </style>
  </defs>
  <g class="cls-6">
    <g id="Camada_2" data-name="Camada 2">
      <g id="Camada_1-2" data-name="Camada 1">
        <g>
          <path class="cls-10" d="m67.23.25c5.45-.67,11.29-.08,15.82,3.18,6.13,4.41,8.58,12.82,8.56,20.62-.03,7.81-2.08,15.44-3.03,23.18-.21,1.76-.42,3.65-1.53,4.99-1.44,1.74-3.89,1.97-6.09,2.07-4.64.22-9.28.44-13.92.66-5.99.28-11.98.57-17.97.3-5.65-.26-11.89-1.34-15.44-5.97-2.83-3.7-3.25-8.77-3.41-13.51-.18-5.52-.13-11.25,2.11-16.24,1.11-2.47,2.85-4.67,5.01-6.2,2.12-1.51,4.25-1.58,6.58-2.36,2.27-.76,4.1-2.92,6.09-4.25,2.47-1.65,5.11-3.02,7.85-4.09,3.01-1.17,6.16-1.98,9.35-2.37Z"/>
          <g>
            <path class="cls-1" d="m81.19,89.94c-4.75-2.11-20.53,0-20.53,0,0,0-15.79-2.11-20.53,0-11.69,5.2-29.53,5.7-40.13,18.53,0,0,15.57,31.35,60.51,31.47,42.12.11,60.81-31.47,60.81-31.47-10.6-12.83-28.44-13.33-40.13-18.53Z"/>
            <path class="cls-3" d="m86.08,91.78c-1.71-.56-3.35-1.16-4.88-1.84-4.75-2.11-20.53,0-20.53,0,0,0-15.79-2.11-20.53,0-1.53.68-3.17,1.28-4.88,1.84,15.99,10.13,34.84,10.13,50.83,0Z"/>
          </g>
          <g>
            <path class="cls-4" d="m71.21,74.04h-21.08c-.71,9.7-10.54,16.14-10.54,16.14h0c13.25,8.29,28.92,8.29,42.17,0h0s-9.84-6.44-10.54-16.14Z"/>
            <path class="cls-8" d="m71.21,74.04h-21.08c-.19,2.6-1.04,4.96-2.17,7.02,2.34,2.14,5.13,3.77,8.04,4.92,4.78,1.89,9.9,2.59,14.98,3.15,2.31.26,4.66.49,6.93-.01.59-.13,1.18-.32,1.74-.57-2.93-2.49-7.94-7.7-8.43-14.51Z"/>
          </g>
          <g>
            <g>
              <path class="cls-4" d="m41.14,51.83c-.75-5.82-4.89-8.64-4.89-8.64-1.37-1.17-3.37-1.35-5.01-.67-1.64.69-2.92,2.16-3.64,3.85-.72,1.69-.92,3.59-.81,5.44.21,3.57,1.56,7.06,3.79,9.76,1.19,1.45,2.89,2.75,4.68,2.39.96-.2,1.78-.86,2.47-1.58,2.59-2.72,3.89-6.74,3.4-10.56Z"/>
              <path class="cls-5" d="m34.52,48.64c-.65-.84-1.66-1.33-2.68-1.52-.38-.07-.87-.03-1.02.35-.09.22-.01.49.13.67.14.19.34.32.53.45.65.45,1.24.98,1.78,1.56.3.33.59.75.49,1.19-.1.42-.53.65-.92.81-.9.38-1.91.83-2.27,1.79-.12.32-.12.75.15.95.22.16.53.09.75-.06.22-.15.4-.37.61-.53.63-.48,1.53-.42,2.18.03s1.05,1.22,1.2,2.01c.07.35.1.71.25,1.03.15.32.46.59.8.53.33-.05.55-.39.69-.71.51-1.12-.06-5.17-2.7-8.55Z"/>
            </g>
            <g>
              <path class="cls-4" d="m80.19,51.83c.75-5.82,4.89-8.64,4.89-8.64,1.37-1.17,3.37-1.35,5.01-.67s2.92,2.16,3.64,3.85c.72,1.69.92,3.59.81,5.44-.21,3.57-1.56,7.06-3.79,9.76-1.19,1.45-2.89,2.75-4.68,2.39-.96-.2-1.78-.86-2.47-1.58-2.59-2.72-3.89-6.74-3.4-10.56Z"/>
              <path class="cls-5" d="m86.81,48.64c.65-.84,1.66-1.33,2.68-1.52.38-.07.87-.03,1.02.35.09.22.01.49-.13.67-.14.19-.34.32-.53.45-.65.45-1.24.98-1.78,1.56-.3.33-.59.75-.49,1.19.1.42.53.65.92.81.9.38,1.91.83,2.27,1.79.12.32.12.75-.15.95-.22.16-.53.09-.75-.06-.22-.15-.4-.37-.61-.53-.63-.48-1.53-.42-2.18.03-.65.45-1.05,1.22-1.2,2.01-.07.35-.1.71-.25,1.03-.15.32-.46.59-.8.53-.33-.05-.55-.39-.69-.71-.51-1.12.06-5.17,2.7-8.55Z"/>
            </g>
            <path class="cls-4" d="m60.66,16.47c-14.35,0-25.98,17.39-25.98,33.02,0,26.64,14.48,35.74,25.98,35.74s25.99-9.1,25.98-35.74c0-15.63-11.63-33.02-25.98-33.02Z"/>
            <g>
              <path class="cls-10" d="m53.4,38.64c-3.34-.94-7.31.07-9.33,3.02-.03.04.03.1.07.07,1.25-.89,2.64-1.45,4.18-1.6,1.46-.14,2.92.04,4.17.68.63.32,1.4.11,1.68-.57.27-.65-.08-1.41-.77-1.6Z"/>
              <g>
                <path class="cls-9" d="m53.66,47.96c-.08,1.05-1,3.05-2.24,3.05s-2.24-1.81-2.24-3.05c1.35,0,3.24,0,4.49,0Z"/>
                <circle class="cls-2" cx="50.04" cy="48.54" r=".47"/>
              </g>
              <g>
                <path class="cls-9" d="m73.28,47.96c-.08,1.05-1,3.05-2.24,3.05s-2.24-1.81-2.24-3.05c1.35,0,3.24,0,4.49,0Z"/>
                <circle class="cls-2" cx="69.67" cy="48.54" r=".47"/>
              </g>
              <path class="cls-10" d="m67.93,38.64c3.34-.94,7.31.07,9.33,3.02.03.04-.03.1-.07.07-1.25-.89-2.64-1.45-4.18-1.6-1.46-.14-2.92.04-4.17.68-.63.32-1.4.11-1.68-.57-.27-.65.08-1.41.77-1.6Z"/>
              <path class="cls-5" d="m60.5,54.19c-.08-.29-.36-.41-.64-.36-.83.16-1.59.73-1.97,1.49-.43.86-.4,1.89.08,2.73.14.24.47.33.71.19.24-.14.33-.46.19-.71-.3-.53-.34-1.21-.06-1.73.04-.07.07-.13.12-.2,0,0,.08-.11.05-.07-.03.04.06-.07.06-.07.05-.06.1-.11.16-.16.03-.03.06-.06.09-.08.06-.06,0,0,.03-.03.13-.09.26-.17.41-.24.02,0,.04-.02.05-.02.04-.01.08-.03.12-.04.08-.02.16-.04.25-.06.27-.05.43-.38.36-.64Z"/>
              <path class="cls-5" d="m68.5,62.34c-4.15-.78-7.4.94-8.93,4.62-.22.52-1.1-.54-.88-1.05,1.62-3.9,5.12-5.63,9.5-4.8.58.11.89,1.35.31,1.24Z"/>
            </g>
          </g>
          <g>
            <path class="cls-10" d="m43.73,23.28c.72-2.14,1.58-4.46,3.46-5.58,1.73-1.02,3.92-.74,5.72.12,1.8.86,3.34,2.23,4.96,3.42,4.45,3.27,9.74,5.28,15.15,5.77,2.26.2,4.61.13,6.71-.78,2.1-.91,3.92-2.78,4.36-5.12.33-1.76-.16-3.63-1.1-5.12s-2.32-2.65-3.81-3.53c-4.23-2.5-9.32-2.87-14.16-2.44-4.84.43-9.6,1.59-14.44,1.94-2.83.2-5.84.17-8.23,1.77-3,2-4.14,5.93-5.05,9.54-1,3.92-2,7.85-3,11.77-.33,1.3-1,7.42.48,7.34,4.48-.24,7.66-15.23,8.96-19.09Z"/>
            <path class="cls-7" d="m70.4,22.28l-1.26-2.72c-.1-.21-.19-.43-.17-.66.07-.57.79-.72,1.33-.61.53.11,1.14.32,1.58-.01.55-.42.39-1.32.09-1.96-.29-.64-.67-1.39-.35-2.03.27-.56.96-.73,1.56-.69s1.18.25,1.78.19c1.5-.14,2.4-1.79,3.03-3.23.51-1.17,1.04-2.43.88-3.71-.13-1.04-.73-2.01-1.6-2.55,0,1.16-.85,2.26-1.93,2.51-.87.2-2,.02-2.43.84-.44.86.43,1.96.08,2.86-.24.61-.92.86-1.54,1.01-2.28.57-4.62.82-6.96.76-.69-.02-1.4-.06-2.03.21-.64.27-1.17.97-1.02,1.68.14.66.81,1.18.7,1.84-.28,1.65-2.77.18-3.34,1.46-.58,1.29,1.46,2.39,2.23,2.85,2.82,1.68,6.15,2.41,9.37,1.97Z"/>
          </g>
        </g>
      </g>
    </g>
  </g>
</svg>