<?xml version="1.0" encoding="UTF-8"?>
<svg xmlns="http://www.w3.org/2000/svg" viewBox="0 0 122.36 136.19">
  <defs>
    <style>
      .cls-1 {
        fill: #fff;
      }

      .cls-2 {
        fill: #533131;
      }

      .cls-3 {
        fill: none;
        isolation: isolate;
      }

      .cls-4 {
        fill: #a24239;
      }

      .cls-5 {
        fill: #e8b5a1;
        mix-blend-mode: overlay;
      }

      .cls-5, .cls-6 {
        opacity: .3;
      }

      .cls-6 {
        fill: #eab28e;
        mix-blend-mode: multiply;
      }

      .cls-7 {
        fill: #3a3032;
      }

      .cls-8 {
        fill: #bc7953;
      }

      .cls-9 {
        fill: #00a99d;
      }

      .cls-10 {
        fill: #311c1c;
      }
    </style>
  </defs>
  <g class="cls-3">
    <g id="Camada_2" data-name="Camada 2">
      <g id="Camada_1-2" data-name="Camada 1">
        <g>
          <path class="cls-10" d="m46.45.24c-8.27,1.26-15.66,7.61-18.47,15.88-2.39,7.02-1.6,14.76-2.75,22.12-1.05,6.71-3.75,13.12-7.78,18.44-1.58,2.09-3.43,4.16-3.89,6.78-.61,3.48,1.4,6.87,3.65,9.51,8.04,9.43,19.86,14.38,31.67,16.89,11.9,2.52,24.48,2.83,35.98-1.26,11.5-4.09,21.79-13,26.02-24.96,4.24-11.95,1.44-26.82-8.02-34.82-4.44-3.76-10.06-5.93-13.98-10.29-2.4-2.67-4.08-6.09-6.93-8.21-4.83-3.59-13.43-.83-13.49-.91-.86-1.15-2.26-2.27-3.3-3.23C60.11,1.54,53.11-.78,46.45.24Z"/>
          <path class="cls-9" d="m82.23,86.06c-4.75-2.11-20.53,0-20.53,0,0,0-15.79-2.11-20.53,0-11.69,5.2-30.56,6.24-41.16,19.07,0,0,21.31,31.06,59.19,31.06,44.34,0,63.17-31.6,63.17-31.6-10.6-12.83-28.44-13.33-40.13-18.53Z"/>
          <g>
            <path class="cls-8" d="m33.49,88.76s10.33,10.65,28.2,10.65,28.2-10.65,28.2-10.65h0c-2.73-.8-5.33-1.66-7.67-2.7-4.75-2.11-20.53,0-20.53,0,0,0-15.79-2.11-20.53,0-2.35,1.04-4.94,1.9-7.67,2.7h0Z"/>
            <path class="cls-8" d="m72.24,70.16h-21.08c-.71,9.7-10.54,16.14-10.54,16.14h0c13.25,8.29,28.92,8.29,42.17,0h0s-9.84-6.44-10.54-16.14Z"/>
            <path class="cls-6" d="m72.24,70.16h-21.08c-.19,2.6-1.04,4.96-2.17,7.02,2.34,2.14,5.13,3.77,8.04,4.92,4.78,1.89,9.9,2.59,14.98,3.15,2.31.26,4.66.49,6.93-.01.59-.13,1.18-.32,1.74-.57-2.93-2.49-7.94-7.7-8.43-14.51Z"/>
          </g>
          <g>
            <g>
              <path class="cls-8" d="m42.17,47.94c-.75-5.82-4.89-8.64-4.89-8.64-1.37-1.17-3.37-1.35-5.01-.67-1.64.69-2.92,2.16-3.64,3.85-.72,1.69-.92,3.59-.81,5.44.21,3.57,1.56,7.06,3.79,9.76,1.19,1.45,2.89,2.75,4.68,2.39.96-.2,1.78-.86,2.47-1.58,2.59-2.72,3.89-6.74,3.4-10.56Z"/>
              <path class="cls-2" d="m35.55,44.75c-.65-.84-1.66-1.33-2.68-1.52-.38-.07-.87-.03-1.02.35-.09.22-.01.49.13.67.14.19.34.32.53.45.65.45,1.24.98,1.78,1.56.3.33.59.75.49,1.19-.1.42-.53.65-.92.81-.9.38-1.91.83-2.27,1.79-.12.32-.12.75.15.95.22.16.53.09.75-.06.22-.15.4-.37.61-.53.63-.48,1.53-.42,2.18.03.65.45,1.05,1.22,1.2,2.01.07.35.1.71.25,1.03.15.32.46.59.8.53.33-.05.55-.39.69-.71.51-1.12-.06-5.17-2.7-8.55Z"/>
            </g>
            <g>
              <path class="cls-8" d="m81.22,47.94c.75-5.82,4.89-8.64,4.89-8.64,1.37-1.17,3.37-1.35,5.01-.67,1.64.69,2.92,2.16,3.64,3.85.72,1.69.92,3.59.81,5.44-.21,3.57-1.56,7.06-3.79,9.76-1.19,1.45-2.89,2.75-4.68,2.39-.96-.2-1.78-.86-2.47-1.58-2.59-2.72-3.89-6.74-3.4-10.56Z"/>
              <path class="cls-2" d="m87.84,44.75c.65-.84,1.66-1.33,2.68-1.52.38-.07.87-.03,1.02.35.09.22.01.49-.13.67-.14.19-.34.32-.53.45-.65.45-1.24.98-1.78,1.56-.3.33-.59.75-.49,1.19.1.42.53.65.92.81.9.38,1.91.83,2.27,1.79.12.32.12.75-.15.95-.22.16-.53.09-.75-.06-.22-.15-.4-.37-.61-.53-.63-.48-1.53-.42-2.18.03s-1.05,1.22-1.2,2.01c-.07.35-.1.71-.25,1.03-.15.32-.46.59-.8.53-.33-.05-.55-.39-.69-.71-.51-1.12.06-5.17,2.7-8.55Z"/>
            </g>
            <path class="cls-8" d="m61.69,12.58c-14.35,0-25.98,17.39-25.98,33.02,0,26.64,14.48,35.74,25.98,35.74s25.99-9.1,25.98-35.74c0-15.63-11.63-33.02-25.98-33.02Z"/>
            <g>
              <path class="cls-10" d="m54.43,39.68c-3.34-.94-7.31.07-9.33,3.02-.03.04.03.1.07.07,1.25-.89,2.64-1.45,4.18-1.6,1.46-.14,2.92.04,4.17.68.63.32,1.4.11,1.68-.57.27-.65-.08-1.41-.77-1.6Z"/>
              <g>
                <circle class="cls-7" cx="52.44" cy="48.99" r="2.24"/>
                <circle class="cls-1" cx="51.55" cy="47.95" r=".47"/>
              </g>
              <path class="cls-10" d="m68.96,39.68c3.34-.94,7.31.07,9.33,3.02.03.04-.03.1-.07.07-1.25-.89-2.64-1.45-4.18-1.6-1.46-.14-2.92.04-4.17.68-.63.32-1.4.11-1.68-.57-.27-.65.08-1.41.77-1.6Z"/>
              <g>
                <path class="cls-7" d="m73.19,48.99c0,1.24-1.01,2.24-2.24,2.24s-2.24-1.01-2.24-2.24,1.01-2.24,2.24-2.24,2.24,1.01,2.24,2.24Z"/>
                <circle class="cls-1" cx="70.05" cy="47.95" r=".47"/>
              </g>
              <path class="cls-2" d="m61.53,55.22c-.08-.29-.36-.41-.64-.36-.83.16-1.59.73-1.97,1.49-.43.86-.4,1.89.08,2.73.14.24.47.33.71.19.24-.14.33-.46.19-.71-.3-.53-.34-1.21-.06-1.73.04-.07.07-.13.12-.2,0,0,.08-.11.05-.07-.03.04.06-.07.06-.07.05-.06.1-.11.16-.16.03-.03.06-.06.09-.08.06-.06,0,0,.03-.03.13-.09.26-.17.41-.24.02,0,.04-.02.05-.02.04-.01.08-.03.12-.04.08-.02.16-.04.25-.06.27-.05.43-.38.36-.64Z"/>
              <path class="cls-10" d="m68.49,61.67c-4.26,2.09-9.28,2.26-13.7.55-.62-.24-.61.43-.28,1,4.11,6.94,9.16,8.48,14.49-.66.34-.58.07-1.19-.52-.89Z"/>
            </g>
            <path class="cls-4" d="m77.54,54.82c.35.2.68.46.9.81.22.35.31.81.16,1.2-.2.54-.77.8-1.3.97-1.32.43-2.73.6-4.11.4-.53-.08-1.06-.21-1.53-.48s-.88-.68-1.08-1.2c-.2-.52-.17-1.16.15-1.61.48-.69,1.51-.85,2.27-.88.99-.04,2-.02,2.97.19.55.12,1.08.31,1.57.6Z"/>
            <path class="cls-4" d="m45.54,54.82c-.35.2-.68.46-.9.81-.22.35-.31.81-.16,1.2.2.54.77.8,1.3.97,1.32.43,2.73.6,4.11.4.53-.08,1.06-.21,1.53-.48.47-.27.88-.68,1.08-1.2.2-.52.17-1.16-.15-1.61-.48-.69-1.51-.85-2.27-.88-.99-.04-2-.02-2.97.19-.55.12-1.08.31-1.57.6Z"/>
          </g>
          <g>
            <path class="cls-10" d="m66.11,30.16c-6.07,3.71-19.36,5.35-26.35,6.05-2.13.21-4.45.29-6.2-.99-1.79-1.31-2.54-3.73-2.64-6.02-.26-5.95,3.18-11.63,7.88-14.96,4.7-3.33,10.49-4.58,16.16-4.79,5.41-.2,11.05.55,15.87,3.3,1.04.59,7.95.94,7.57,2.26-.35,1.22-.86,2.4-1.41,3.53-1.14,2.3-2.62,4.4-4.33,6.26-1.93,2.1-4.15,3.9-6.55,5.37Z"/>
            <path class="cls-5" d="m34.92,10.59c.59.36,1.41.06,2,.43.46.29.63.9.64,1.45,0,.56-.12,1.11-.11,1.67.04,1.69,1.6,3.17,3.21,3.04.8-.06,1.62-.46,2.38-.18.94.35,1.28,1.55,1.37,2.59s.1,2.2.77,2.96c.56.64,1.46.83,2.29.81.83-.02,1.66-.2,2.49-.16,2.43.12,4.57,2.16,6.99,1.97,1.21-.1,2.33-.76,3.22-1.63.89-.86,1.59-1.92,2.28-2.97-1.08.34-2.2.69-3.32.54s-2.24-.94-2.45-2.1c-.07-.37-.06-.8-.33-1.04-.32-.28-.8-.11-1.2.05-1.61.63-3.41.71-5.07.22.36-.96.26-2.1-.27-2.97-.53-.87-1.47-1.45-2.45-1.51-.79-.05-1.57.23-2.37.28s-1.7-.18-2.08-.91c-.28-.55-.18-1.21-.16-1.83.03-.62-.08-1.34-.59-1.67-.44-.28-1-.15-1.51-.13-2.17.08-2.72-2.5-4.53-2.78-1.53-.24-2.57,3.04-1.21,3.87Z"/>
          </g>
        </g>
      </g>
    </g>
  </g>
</svg>